<svg width="96" height="96" viewBox="0 0 96 96" fill="none" xmlns="http://www.w3.org/2000/svg">
<path d="M61.3056 48L92.2848 17.0208C95.9616 13.344 95.9616 7.39204 92.2848 3.71524C88.608 0.0384415 82.656 0.0384415 78.9792 3.71524L48 34.6944L17.0208 3.71524C13.344 0.0384415 7.392 0.0384415 3.7152 3.71524C0.0383996 7.39204 0.0383996 13.344 3.7152 17.0208L34.6944 48L3.7152 78.9792C0.0383996 82.656 0.0383996 88.608 3.7152 92.2848C5.5584 94.1184 7.9584 95.04 10.368 95.04C12.7776 95.04 15.1776 94.1184 17.0208 92.2848L48 61.3056L78.9792 92.2848C80.8128 94.1184 83.2224 95.04 85.632 95.04C88.0416 95.04 90.4416 94.1184 92.2848 92.2848C95.9616 88.608 95.9616 82.656 92.2848 78.9792L61.3056 48Z" fill="#D0D0D0"/>
</svg>
