<svg width="286" height="253" viewBox="0 0 286 253" fill="none" xmlns="http://www.w3.org/2000/svg">
<path d="M240.03 0.202012C236.19 0.747445 232.13 2.18173 226.929 4.84829C218.009 9.39356 207.708 16.767 194.527 28.0595C176.006 43.9174 151.364 68.4619 125.202 97.0668C111.981 111.551 97.4204 128.116 86.9397 140.641C85.1995 142.742 83.7594 144.439 83.7394 144.439C83.7194 144.439 82.3993 143.752 80.8192 142.903C75.7189 140.196 63.318 133.974 59.2577 132.076C42.2765 124.177 30.4357 120.056 21.0151 118.763C18.3349 118.399 13.6546 118.5 11.4344 118.965C6.95409 119.935 3.33384 122.621 1.53371 126.359C0.49364 128.46 0.153616 130.055 0.133615 132.621C0.113613 134.742 0.153616 134.904 0.773659 136.197C1.3537 137.388 1.87374 137.954 5.47399 141.328C14.2346 149.55 23.8553 159.59 30.9358 167.892C46.7769 186.498 63.438 211.668 82.5194 245.829C85.8796 251.828 87.1997 253 90.6199 253C91.94 253 92.54 252.899 93.2601 252.576C95.5203 251.546 96.4203 250.333 98.0204 246.253C100.721 239.364 105.981 226.779 109.321 219.284C135.023 161.387 165.725 112.319 202.408 70.5022C212.808 58.6441 221.829 49.3112 238.83 32.8068C252.131 19.878 254.631 16.8882 255.711 12.5046C257.332 5.87855 251.971 0.363622 243.631 0.101006C242.37 0.0606038 240.75 0.101006 240.03 0.202012Z" fill="#CFCFCF"/>
</svg>
